<svg width="24" height="24" viewBox="0 0 24 24" fill="none" xmlns="http://www.w3.org/2000/svg">
    <path fill-rule="evenodd" clip-rule="evenodd" d="M3.7 5.7A2.388 2.388 0 0 1 5.387 5h13.224A2.388 2.388 0 0 1 21 7.388v.826a2.388 2.388 0 0 1-1.653 2.272v6.82a2.388 2.388 0 0 1-2.388 2.388H7.041a2.388 2.388 0 0 1-2.388-2.388v-6.82A2.387 2.387 0 0 1 3 8.214v-.826c0-.634.252-1.24.7-1.689zm1.688 3.433h13.224a.918.918 0 0 0 .919-.919v-.826a.918.918 0 0 0-.919-.919H5.388a.918.918 0 0 0-.919.919v.826a.918.918 0 0 0 .919.919zm.734 1.469v6.704a.918.918 0 0 0 .919.918h9.918a.919.919 0 0 0 .919-.918v-6.704H6.122zm3.49 2.572c0-.406.33-.735.735-.735h3.306a.735.735 0 0 1 0 1.47h-3.306a.735.735 0 0 1-.735-.736z" fill="#fff"/>
</svg>
