<svg width="24" height="24" viewBox="0 0 24 24" fill="none" xmlns="http://www.w3.org/2000/svg">
    <path d="M3 7.214A3.214 3.214 0 0 1 6.214 4h11.572A3.214 3.214 0 0 1 21 7.214v6.429a3.213 3.213 0 0 1-3.214 3.214h-4.901l-3.939 3.446a1.26 1.26 0 0 1-2.089-.949v-2.497h-.643A3.214 3.214 0 0 1 3 13.643V7.214zm3.214-1.928a1.929 1.929 0 0 0-1.928 1.928v6.429a1.929 1.929 0 0 0 1.928 1.928h1.929v3.726l4.258-3.726h5.385a1.929 1.929 0 0 0 1.928-1.928V7.214a1.929 1.929 0 0 0-1.928-1.928H6.214z" fill="#fff" stroke="#fff" stroke-width=".5" stroke-linecap="round" stroke-linejoin="round"/>
</svg>
