<svg width="24" height="24" viewBox="0 0 24 24" fill="none" xmlns="http://www.w3.org/2000/svg">
    <path fill-rule="evenodd" clip-rule="evenodd" d="M5.01 5.01a.72.72 0 0 1 .51-.21h7.29a.72.72 0 0 1 .72.72v.81a.9.9 0 1 0 1.8 0v-.81A2.52 2.52 0 0 0 12.81 3H5.52A2.52 2.52 0 0 0 3 5.52v7.29a2.52 2.52 0 0 0 2.52 2.52h.81a.9.9 0 0 0 0-1.8h-.81a.72.72 0 0 1-.72-.72V5.52a.72.72 0 0 1 .21-.51zm5.46 6.18a.72.72 0 0 1 .72-.72h7.29a.72.72 0 0 1 .72.72v7.29a.72.72 0 0 1-.72.72h-7.29a.72.72 0 0 1-.72-.72v-7.29zm.72-2.52a2.52 2.52 0 0 0-2.52 2.52v7.29A2.52 2.52 0 0 0 11.19 21h7.29A2.52 2.52 0 0 0 21 18.48v-7.29a2.52 2.52 0 0 0-2.52-2.52h-7.29z" fill="#fff"/>
</svg>
