<svg width="24" height="24" viewBox="0 0 24 24" fill="none" xmlns="http://www.w3.org/2000/svg">
    <path d="M19.904 11.525a2.81 2.81 0 0 1 .57 1.697c0 .98-.549 1.909-1.431 2.427a1.478 1.478 0 0 1-.75.203h-5.237l.131 2.684a2.338 2.338 0 0 1-.644 1.734 2.33 2.33 0 0 1-1.702.73A2.54 2.54 0 0 1 8.4 19.141l-1.876-6.793H3.7A.698.698 0 0 1 3 11.65V3.7C3 3.312 3.312 3 3.699 3h13.133c.201 0 .398.04.58.118a2.808 2.808 0 0 1 1.592 3.394 2.81 2.81 0 0 1 .452 2.505c.367.485.57 1.08.57 1.698a2.982 2.982 0 0 1-.122.81zM4.573 4.573v6.203h1.769V4.573h-1.77zm13.9 7.71-.479-.415.304-.555a1.247 1.247 0 0 0-.277-1.536l-.479-.414.304-.555a1.247 1.247 0 0 0-.277-1.536l-.479-.415.304-.554a1.242 1.242 0 0 0-.583-1.728H7.74v6.27l2.173 7.875a.963.963 0 0 0 .922.705.776.776 0 0 0 .78-.813l-.21-4.333h6.867c.389-.238.629-.64.629-1.057 0-.36-.157-.701-.428-.94z" fill="#fff"/>
</svg>
