<svg width="24" height="24" viewBox="0 0 24 24" fill="none" xmlns="http://www.w3.org/2000/svg">
    <path fill-rule="evenodd" clip-rule="evenodd" d="m18.664 7.693-4.5-4.5a.584.584 0 0 0-.45-.193H7.286A1.29 1.29 0 0 0 6 4.286v15.428A1.29 1.29 0 0 0 7.286 21H17.57a1.29 1.29 0 0 0 1.286-1.286V8.143a.583.583 0 0 0-.193-.45zm-4.95-3.15 3.6 3.6h-3.6v-3.6zm3.857 15.171H7.286V4.286h5.143v3.857a1.29 1.29 0 0 0 1.285 1.286h3.857v10.285zm-9-3.857h7.715v1.286H8.572v-1.286zM16.287 12H8.57v1.286h7.715V12z" fill="#fff"/>
</svg>
