<svg width="24" height="24" viewBox="0 0 24 24" fill="none" xmlns="http://www.w3.org/2000/svg">
    <path fill-rule="evenodd" clip-rule="evenodd" d="M4.994 12.022c-.11-.186-.2-.348-.266-.476A10.956 10.956 0 0 1 6.36 9.239C7.594 7.91 9.438 6.636 12 6.636c2.562 0 4.405 1.274 5.638 2.603a10.954 10.954 0 0 1 1.633 2.307 10.95 10.95 0 0 1-1.633 2.307c-1.233 1.328-3.076 2.602-5.639 2.602-2.562 0-4.406-1.274-5.64-2.602a10.951 10.951 0 0 1-1.366-1.831zm15.188-.476.752-.323-.752.323zm.752.323a.82.82 0 0 0 0-.646l-.001-.003-.003-.006-.008-.017a4.692 4.692 0 0 0-.125-.263 12.583 12.583 0 0 0-1.959-2.808C17.413 6.59 15.165 5 12 5S6.588 6.59 5.162 8.125a12.59 12.59 0 0 0-1.96 2.809 7.43 7.43 0 0 0-.124.263l-.008.017-.002.006-.001.002a.82.82 0 0 0-.001.646l.749-.321-.749.32v.002l.002.002.002.006.008.018a4.612 4.612 0 0 0 .125.263 12.59 12.59 0 0 0 1.959 2.809C6.588 16.501 8.835 18.09 12 18.09s5.413-1.59 6.838-3.125a12.584 12.584 0 0 0 1.96-2.808 7.286 7.286 0 0 0 .125-.263l.007-.018.003-.006v-.002zm0 0-.752-.323.752.323zm-17.116-.323-.752-.323.752.323zm6.546 0a1.636 1.636 0 1 1 3.272 0 1.636 1.636 0 0 1-3.272 0zM12 8.271a3.273 3.273 0 1 0 0 6.546 3.273 3.273 0 0 0 0-6.546z" fill="#fff"/>
</svg>
