<svg width="24" height="24" viewBox="0 0 24 24" fill="none" xmlns="http://www.w3.org/2000/svg">
    <path fill-rule="evenodd" clip-rule="evenodd" d="M7.945 3.612C8.29 3.268 8.783 3 9.334 3h5.75c.177 0 .346.07.471.195l3.75 3.75a.667.667 0 0 1 .195.472v8.25c0 .55-.268 1.044-.612 1.388-.343.344-.838.612-1.388.612H9.334c-.55 0-1.045-.268-1.389-.612-.343-.344-.612-.838-.612-1.388V5c0-.55.269-1.044.612-1.388zM14 4.333H9.334c-.117 0-.29.065-.446.222-.156.156-.221.329-.221.445v10.667c0 .116.065.289.221.445.157.157.329.222.446.222H17.5c.117 0 .29-.065.446-.222.156-.156.221-.329.221-.445V8.5h-3.5A.667.667 0 0 1 14 7.833v-3.5zm3.64 2.834h-2.306V4.859l2.307 2.308zm-12.973.499c.368 0 .666.298.666.667V19c0 .116.065.288.222.445.156.156.329.221.445.221h8.167a.667.667 0 0 1 0 1.334H6c-.55 0-1.044-.269-1.388-.612C4.268 20.044 4 19.55 4 19V8.333c0-.369.298-.667.667-.667z" fill="#fff"/>
</svg>
