<svg width="24" height="24" viewBox="0 0 24 24" fill="none" xmlns="http://www.w3.org/2000/svg">
    <path d="M19.904 12.475a2.81 2.81 0 0 0 .57-1.697c0-.98-.549-1.909-1.431-2.427a1.478 1.478 0 0 0-.75-.203h-5.237l.131-2.684a2.338 2.338 0 0 0-.644-1.734A2.329 2.329 0 0 0 10.84 3 2.54 2.54 0 0 0 8.4 4.859l-1.876 6.793H3.7A.698.698 0 0 0 3 12.35v7.95c0 .387.312.699.699.699h13.133c.201 0 .398-.04.58-.118a2.809 2.809 0 0 0 1.592-3.394 2.81 2.81 0 0 0 .452-2.505c.367-.485.57-1.08.57-1.698a2.982 2.982 0 0 0-.122-.81zM4.573 19.427v-6.203h1.769v6.203h-1.77zm13.9-7.71-.479.415.304.555a1.247 1.247 0 0 1-.277 1.536l-.479.414.304.555a1.247 1.247 0 0 1-.277 1.535l-.479.416.304.555a1.242 1.242 0 0 1-.583 1.728H7.74v-6.272L9.913 5.28a.963.963 0 0 1 .922-.705.776.776 0 0 1 .78.813l-.21 4.333h6.867c.389.238.629.64.629 1.057 0 .36-.157.701-.428.94z" fill="#24EBD3"/>
</svg>
