<svg width="24" height="24" viewBox="0 0 24 24" fill="none" xmlns="http://www.w3.org/2000/svg">
    <path fill-rule="evenodd" clip-rule="evenodd" d="M12.646 4.386a4.939 4.939 0 0 1 6.984 6.984l-.01.01-2.47 2.47a4.939 4.939 0 0 1-7.447-.534.823.823 0 1 1 1.318-.986 3.293 3.293 0 0 0 4.965.356l2.465-2.464a3.293 3.293 0 0 0-4.657-4.655L12.383 6.97a.823.823 0 1 1-1.16-1.168l1.415-1.407.008-.009z" fill="#fff"/>
    <path fill-rule="evenodd" clip-rule="evenodd" d="M8.633 9.015a4.94 4.94 0 0 1 5.68 1.669.823.823 0 0 1-1.318.986 3.292 3.292 0 0 0-4.965-.356l-2.464 2.464a3.292 3.292 0 0 0 4.656 4.656l1.402-1.402a.823.823 0 1 1 1.164 1.164l-1.408 1.407-.01.01a4.938 4.938 0 0 1-6.984-6.983l.01-.01 2.47-2.47a4.94 4.94 0 0 1 1.767-1.135z" fill="#fff"/>
</svg>
