<svg width="24" height="24" viewBox="0 0 24 24" fill="none" xmlns="http://www.w3.org/2000/svg">
    <path fill-rule="evenodd" clip-rule="evenodd" d="m15.305 6.7 1.505-1.505a1.411 1.411 0 0 1 1.995 1.994L17.3 8.694 15.305 6.7zm-1.279 1.28L5.75 16.255l-.64-.64.64.64a.905.905 0 0 0-.248.462l-.444 2.224 2.223-.444a.904.904 0 0 0 .462-.248l8.277-8.276-1.994-1.995zm-9.555 6.997a2.714 2.714 0 0 0-.742 1.386l-.711 3.555a.905.905 0 0 0 1.064 1.064l3.554-.71a2.714 2.714 0 0 0 1.386-.743L20.092 8.46l.015-.014a3.22 3.22 0 0 0-4.554-4.552l-.014.014L4.471 14.977z" fill="#fff"/>
</svg>
