<svg width="12" height="14" viewBox="0 0 12 14" fill="none" xmlns="http://www.w3.org/2000/svg">
<path d="M11.414 10.9312C11.1193 10.2331 10.6916 9.59891 10.1547 9.06406C9.61941 8.52767 8.98534 8.10001 8.28748 7.80469C8.28123 7.80156 8.27498 7.8 8.26873 7.79688C9.24217 7.09375 9.87498 5.94844 9.87498 4.65625C9.87498 2.51562 8.1406 0.78125 5.99998 0.78125C3.85935 0.78125 2.12498 2.51562 2.12498 4.65625C2.12498 5.94844 2.75779 7.09375 3.73123 7.79844C3.72498 7.80156 3.71873 7.80312 3.71248 7.80625C3.01248 8.10156 2.38435 8.525 1.84529 9.06563C1.3089 9.60089 0.881235 10.235 0.585916 10.9328C0.295794 11.616 0.139325 12.3485 0.124978 13.0906C0.124561 13.1073 0.127486 13.1239 0.133581 13.1394C0.139676 13.1549 0.148817 13.1691 0.160466 13.181C0.172115 13.193 0.186037 13.2025 0.20141 13.2089C0.216783 13.2154 0.233297 13.2188 0.249978 13.2188H1.18748C1.25623 13.2188 1.31092 13.1641 1.31248 13.0969C1.34373 11.8906 1.8281 10.7609 2.68435 9.90469C3.57029 9.01875 4.74685 8.53125 5.99998 8.53125C7.2531 8.53125 8.42967 9.01875 9.3156 9.90469C10.1719 10.7609 10.6562 11.8906 10.6875 13.0969C10.689 13.1656 10.7437 13.2188 10.8125 13.2188H11.75C11.7667 13.2188 11.7832 13.2154 11.7985 13.2089C11.8139 13.2025 11.8278 13.193 11.8395 13.181C11.8511 13.1691 11.8603 13.1549 11.8664 13.1394C11.8725 13.1239 11.8754 13.1073 11.875 13.0906C11.8594 12.3438 11.7047 11.6172 11.414 10.9312ZM5.99998 7.34375C5.28279 7.34375 4.60779 7.06406 4.09998 6.55625C3.59217 6.04844 3.31248 5.37344 3.31248 4.65625C3.31248 3.93906 3.59217 3.26406 4.09998 2.75625C4.60779 2.24844 5.28279 1.96875 5.99998 1.96875C6.71717 1.96875 7.39217 2.24844 7.89998 2.75625C8.40779 3.26406 8.68748 3.93906 8.68748 4.65625C8.68748 5.37344 8.40779 6.04844 7.89998 6.55625C7.39217 7.06406 6.71717 7.34375 5.99998 7.34375Z" fill="white"/>
</svg>
