<svg width="24" height="24" viewBox="0 0 24 24" fill="none" xmlns="http://www.w3.org/2000/svg">
    <path fill-rule="evenodd" clip-rule="evenodd" d="M9.558 4.058a1.05 1.05 0 0 1 .742-.308h3.6a1.05 1.05 0 0 1 1.05 1.05v1.05h-5.7V4.8c0-.278.11-.546.308-.742zM7.75 5.85V4.8a2.55 2.55 0 0 1 2.55-2.55h3.6a2.55 2.55 0 0 1 2.55 2.55v1.05h3.75a.75.75 0 0 1 0 1.5h-1.05V19.2a2.55 2.55 0 0 1-2.55 2.55h-9a2.55 2.55 0 0 1-2.55-2.55V7.35H4a.75.75 0 0 1 0-1.5h3.75zM6.55 19.2V7.35h11.1V19.2a1.05 1.05 0 0 1-1.05 1.05h-9a1.05 1.05 0 0 1-1.05-1.05zm3.75-8.85a.75.75 0 0 1 .75.75v5.4a.75.75 0 1 1-1.5 0v-5.4a.75.75 0 0 1 .75-.75zm4.35.75a.75.75 0 0 0-1.5 0v5.4a.75.75 0 0 0 1.5 0v-5.4z" fill="#fff"/>
</svg>
