<svg width="111" height="16" viewBox="0 0 111 16" fill="none" xmlns="http://www.w3.org/2000/svg">
    <path fill-rule="evenodd" clip-rule="evenodd" d="M54.18 4.7c0 .49.26.84.78 1.052.52.212 1.465.39 2.836.534 1.578.163 2.866.626 3.864 1.389.998.762 1.498 1.825 1.5 3.189v.182c0 1.505-.562 2.706-1.685 3.601s-2.702 1.344-4.736 1.345c-1.206 0-2.235-.152-3.086-.458a7.112 7.112 0 0 1-2.124-1.144 5.1 5.1 0 0 1-1.294-1.525 5.824 5.824 0 0 1-.608-1.633l3.616-1.16a3.454 3.454 0 0 0 1.043 1.713c.53.489 1.346.734 2.448.734.976 0 1.646-.148 2.01-.443.364-.295.545-.616.545-.962a1.163 1.163 0 0 0-.14-.564 1.377 1.377 0 0 0-.515-.489 3.52 3.52 0 0 0-1.012-.381c-.529-.118-1.065-.2-1.605-.245-1.75-.142-3.136-.584-4.16-1.327-1.025-.743-1.539-1.839-1.541-3.287v-.182a3.868 3.868 0 0 1 .5-1.984c.33-.567.775-1.06 1.309-1.45a5.897 5.897 0 0 1 1.874-.9A7.867 7.867 0 0 1 56.175 0a8.229 8.229 0 0 1 2.54.352 6.194 6.194 0 0 1 1.823.915c.472.349.883.771 1.216 1.25.288.416.528.861.717 1.328l-3.553 1.403a2.523 2.523 0 0 0-.966-1.298c-.457-.314-1.05-.471-1.777-.472-.666 0-1.166.117-1.499.351a1.05 1.05 0 0 0-.361.373 1.024 1.024 0 0 0-.135.497zM33.882 15.562h3.927V7.689c.002-1.282.288-2.304.857-3.066.569-.763 1.436-1.144 2.602-1.144.998 0 1.762.311 2.291.93.53.62.795 1.47.795 2.549v8.604h3.928V5.98c0-1.036-.14-1.931-.421-2.685a4.999 4.999 0 0 0-1.168-1.861A4.718 4.718 0 0 0 44.96.35a6.212 6.212 0 0 0-2.104-.35c-1.06-.002-1.984.232-2.773.701a4.033 4.033 0 0 0-1.714 1.983h-.561V.427h-3.927v15.135zm-1.154-7.385c0 1.263-.218 2.376-.654 3.342a7.117 7.117 0 0 1-1.777 2.446 7.823 7.823 0 0 1-2.571 1.51 9.142 9.142 0 0 1-6.078 0 7.823 7.823 0 0 1-2.567-1.514 7.132 7.132 0 0 1-1.775-2.447c-.437-.966-.655-2.08-.655-3.342v-.367c0-1.24.219-2.344.655-3.311a7.297 7.297 0 0 1 1.775-2.45A7.697 7.697 0 0 1 21.653.519a9.164 9.164 0 0 1 6.078 0 7.696 7.696 0 0 1 2.57 1.525A7.282 7.282 0 0 1 32.076 4.5a7.979 7.979 0 0 1 .654 3.311v.366zm-8.04 4.15c.542.004 1.08-.09 1.588-.274.493-.175.942-.449 1.32-.803.379-.355.678-.783.878-1.256a4.204 4.204 0 0 0 .328-1.695v-.611a4.204 4.204 0 0 0-.328-1.693c-.2-.474-.5-.902-.878-1.256a3.791 3.791 0 0 0-1.32-.804 4.73 4.73 0 0 0-3.18 0 3.865 3.865 0 0 0-1.307.794 3.717 3.717 0 0 0-.889 1.266 4.178 4.178 0 0 0-.327 1.693v.611a4.18 4.18 0 0 0 .328 1.695c.203.476.506.905.888 1.26.377.349.822.619 1.308.795.509.185 1.047.28 1.59.279zm-8.785-2.319c-.353 1.795-1.19 3.24-2.508 4.334-1.32 1.095-3.081 1.645-5.284 1.648a9.587 9.587 0 0 1-3.195-.52 7.518 7.518 0 0 1-2.576-1.495 6.85 6.85 0 0 1-1.714-2.41A8.105 8.105 0 0 1 .001 8.3v-.367a8.328 8.328 0 0 1 .625-3.296 7.302 7.302 0 0 1 1.73-2.502A7.596 7.596 0 0 1 4.943.545 9.032 9.032 0 0 1 8.11 0c2.161 0 3.91.55 5.247 1.648 1.337 1.098 2.184 2.543 2.54 4.333l-3.864.978a3.93 3.93 0 0 0-1.184-2.324c-.667-.652-1.602-.978-2.807-.978a4.173 4.173 0 0 0-1.589.305c-.492.2-.938.496-1.31.87a4.129 4.129 0 0 0-.887 1.372 4.822 4.822 0 0 0-.328 1.817v.182c-.01.61.1 1.217.328 1.786.198.49.5.931.888 1.297.378.349.827.615 1.318.781.51.176 1.048.263 1.59.26 1.204 0 2.124-.295 2.758-.885.634-.59 1.044-1.383 1.232-2.38l3.86.945zm52.746.474a2.887 2.887 0 0 1-.328-1.235l11.362.006V7.208a7.55 7.55 0 0 0-.436-2.457 6.818 6.818 0 0 0-1.374-2.324 7.377 7.377 0 0 0-2.374-1.74C74.546.23 73.403.003 72.07.003a8.155 8.155 0 0 0-3.039.564 7.672 7.672 0 0 0-2.477 1.571 7.174 7.174 0 0 0-1.668 2.447 8.058 8.058 0 0 0-.607 3.173v.183a9.35 9.35 0 0 0 .576 3.387c.353.947.906 1.81 1.624 2.532a7.05 7.05 0 0 0 2.478 1.59 8.819 8.819 0 0 0 3.179.55c.9.015 1.798-.098 2.665-.337a7.297 7.297 0 0 0 1.932-.856 5.43 5.43 0 0 0 1.294-1.145c.304-.372.565-.776.78-1.205l-3.374-1.834a3.025 3.025 0 0 1-1.124 1.204c-.523.336-1.272.504-2.25.504a4.352 4.352 0 0 1-1.417-.228 3.879 3.879 0 0 1-1.185-.641 3.06 3.06 0 0 1-.81-.979zm.95-6.255c.62-.499 1.43-.748 2.43-.748.998.001 1.825.235 2.48.702.654.468 1.044 1.057 1.168 1.77h-7.293c.188-.652.593-1.226 1.214-1.724zm15.49 11.335h-3.928V.427h3.928v2.258h.561c.33-.829.934-1.527 1.714-1.983C88.152.233 89.077 0 90.138 0a6.212 6.212 0 0 1 2.104.351c.65.232 1.241.601 1.729 1.083.524.529.923 1.165 1.17 1.861.28.754.42 1.649.42 2.685v9.582h-3.928V6.958c0-1.08-.264-1.928-.794-2.548-.53-.62-1.294-.93-2.293-.931-1.166 0-2.033.381-2.602 1.144-.57.762-.855 1.784-.857 3.066l.002 7.873zm25.78 0v-3.661H100.77v-.55l9.724-4.699V.427H97.592v3.54h9.536v.55l-9.724 4.638v6.407h13.465z" fill="#fff"/>
</svg>
